<?xml version="1.0" encoding="utf-8"?>
<!-- Generator: Adobe Illustrator 26.0.3, SVG Export Plug-In . SVG Version: 6.00 Build 0)  -->
<svg version="1.1" id="Ebene_1" xmlns="http://www.w3.org/2000/svg" xmlns:xlink="http://www.w3.org/1999/xlink" x="0px" y="0px"
	 viewBox="0 0 1366 768" style="enable-background:new 0 0 1366 768;" xml:space="preserve">
<style type="text/css">
	.st0{clip-path:url(#SVGID_00000139999609420239361100000009313540264691420862_);fill:#752D61;}
	
		.st1{clip-path:url(#SVGID_00000139999609420239361100000009313540264691420862_);fill:none;stroke:#752D61;stroke-width:1.35;stroke-miterlimit:3.864;}
</style>
<g>
	<defs>
		<rect id="SVGID_1_" x="198.29" y="21" width="951.72" height="731"/>
	</defs>
	<clipPath id="SVGID_00000044178832510125914900000013021378926241940371_">
		<use xlink:href="#SVGID_1_"  style="overflow:visible;"/>
	</clipPath>
	<path style="clip-path:url(#SVGID_00000044178832510125914900000013021378926241940371_);fill:#752D61;" d="M214.41,74.1
		c3.26,2.1,6.5,3.68,9.74,4.8C220.9,77.52,217.65,75.94,214.41,74.1 M1120.84,247.93c-26.64,35.93-79.89-9.25-105.23-23.59
		c31.77-25.94,85.81-43.69,113.35-3.59C1131.33,230.7,1126.58,240.19,1120.84,247.93 M701.05,286.75
		c-16.57,8.38-10.55,22.95-43.16,28.08l-20.76-6.27l2.09-19.72C659.23,290.39,680.51,285.91,701.05,286.75 M615.43,265.84
		c-1.45,16.6-10.86,29.33-21.01,28.44c-10.15-0.89-17.2-15.06-15.75-31.66c1.45-16.6,10.86-29.33,21-28.44
		C609.83,235.07,616.88,249.24,615.43,265.84 M564.32,260.77c0,16.66-8.26,30.16-18.45,30.16s-18.45-13.5-18.45-30.16
		c0-16.66,8.26-30.16,18.45-30.16S564.32,244.11,564.32,260.77 M477.54,502.54l9.86,15.54c-0.06,14.97-6.03,29.3-7.31,44.2
		c-6.31,8.86-21.22,20.57-32.71,18.22c-38.43-17.36-60.15-123.42-111.26-168.45c0.6-9.65,1.39-19.45,1.04-29.12l-11.49-15.08
		c0.35-6.37-0.12-12.96-1.04-19.26l-7.77-6.73c-4.3-10.23-2.97-21.45-4.18-32.25c17.26,6.98,30.95,29.44,43.16,31.21l8.36,19.26
		c12.95,5.64,21.74,11.25,27.03,24.94c10.72,12.21,59.07,12.38,72.28,4.18c-0.85,6.22,14.91,75.94,20.76,82.14
		C481.61,481.61,479.22,492.05,477.54,502.54 M370.92,175.49l-5.68,5.68l-12.53-4.64c-4.23-4.99-7.55-12.67-7.77-19.26
		c1.62-5.91,11.19-8.71,16.13-5.68l8.82,10.9L370.92,175.49z M1000.53,204.61c-71.37-61.51-90.18-72.48-182.49-53.02
		c-2.07-25.25-3.9-33.27-19.72-52.56c3.24-27.01-2.48-15.61-9.4-37.94c-0.96-19.7,56.31,1.04,59.28,2.09
		c50.45,17.81,142.15,38.64,166.37-27.03l-2.09-5.22c-67.84,96.11-171.69-56.39-250.59,5.22c-37.75,57.19-12.54,93.59,14.04,149.19
		c-14.63,10.73-27.31,25.89-36.89,41.07c-29.77,6.37-69.08,1.59-100.35,3.13c-1.34-2.57,79.59-122.97-28.08-182.49
		c-10.38,2.28-24.97-0.48-33.3-7.31c-13.69-0.39-45.04,11.18-59.74,16.13c-10.32,7.21-16.26,23.64-18.22,35.39
		c-38.17,10.76-19.99,74.56-31.21,92c9.76,17.69,14.78,39,20.3,58.24l-6.27,4.18c-24.71-9.92-54.32-31.36-57.2-60.33
		c47.07-13.66,33.48-142.83-33.76-159.64c-70.53-17.63-118.18,70.1-167.07,53.18c76.93,32.58,156.12-60.11,183.2-4.8
		c3.35,18.45,4.38,46.11-3.13,63.92c-29.96-19.34-76.13-57.35-101.4,1.05c-5.36,26.97-6.18,63.11,19.26,80.63
		c18.45,3.78,37.38,6.33,56.15,7.77c8.52,31.54,47.24,64.01,49.88,79.01l29.12,11.49l5.22,9.86
		c-66.44-10.27-111.19-94.04-174.72-81.09c-14.86,6.11-29.83,26.47-36.89,40.03c-8.77,64.8,17.25,57.51,22.85,94.09
		c-28.36-1.41-51.07-2.42-75.41-19.72v4.64c14.92,27.04,62.82,46.9,90.49,55.11v7.31c-0.76,32-14.5,66.37-9.86,96.18
		c8.71,55.88,41.39,78.7,23.9,145.6l-36.89,38.98c118.71-39.53,34.9-161.69,73.78-240.73c3.96,10.71,7.53,22,9.4,33.3l10.9,9.86
		c1.03,24.5,20.06,42.85,23.9,68.1c15.85,9.8,17.21,27.5,30.16,40.02c27.24,10.86,59.28,16.29,87.36,5.22
		c10.08-13.22,20.45-26.75,32.25-38.52c11.11-38.43-2.53-169.7,22.85-181.91l9.86,0.46c12.15,28.13,33.97,27.8,43.16,45.25
		l11.95,4.18l10.44,16.13l11.95,3.13c10.37,28.34,44.11,27.63,64.97,61.84c-32.32-11.66-84.88-21.39-113.35,4.18
		c-41.59,58.27,12.04,112.16,71.23,117.52c36.17,36.31,46.32,110.99,118.57,92c-74.48,2.65-66.71-142.09-154.42-161.73l2.09-6.73
		l9.86-8.82c32.35,4.06,62.15,32.79,87.36,31.67c164.44-7.33-93.57-215.43-101.4-227.15c68.16-10.61,93.55-19.18,136.2-82.72
		c8.99,1.97,21.27,3.54,30.16,0c65.08-45.8,5.38-99.78,90.95-101.86c40.17-0.98,49.49,10.56,79.59,36.89
		c-10.91,7.65-37.9,12.02-51.51,15.08c25.26,6.38,50.22,6.96,75.41,0c13.08,17.5,54.49,41.97,75.91,47.29
		C1203.08,325.05,1166.46,76.2,1000.53,204.61"/>
	<path style="clip-path:url(#SVGID_00000044178832510125914900000013021378926241940371_);fill:#752D61;" d="M541.13,261.52
		c0-7.34,2.68-13.29,5.98-13.29s5.97,5.95,5.97,13.29c0,7.34-2.67,13.29-5.97,13.29S541.13,268.86,541.13,261.52"/>
	
		<path style="clip-path:url(#SVGID_00000044178832510125914900000013021378926241940371_);fill:none;stroke:#752D61;stroke-width:1.35;stroke-miterlimit:3.864;" d="
		M541.13,261.52c0-7.34,2.68-13.29,5.98-13.29s5.97,5.95,5.97,13.29c0,7.34-2.67,13.29-5.97,13.29S541.13,268.86,541.13,261.52z"/>
	<path style="clip-path:url(#SVGID_00000044178832510125914900000013021378926241940371_);fill:#752D61;" d="M592.26,264.56
		c0.64-7.31,3.82-13,7.11-12.71c3.29,0.29,5.43,6.45,4.79,13.76c-0.64,7.31-3.82,13-7.11,12.71
		C593.77,278.03,591.62,271.87,592.26,264.56"/>
	
		<path style="clip-path:url(#SVGID_00000044178832510125914900000013021378926241940371_);fill:none;stroke:#752D61;stroke-width:1.35;stroke-miterlimit:3.864;" d="
		M592.26,264.56c0.64-7.31,3.82-13,7.11-12.71c3.29,0.29,5.43,6.45,4.79,13.76c-0.64,7.31-3.82,13-7.11,12.71
		C593.77,278.03,591.62,271.87,592.26,264.56z"/>
</g>
</svg>
